HIERARCHY
ROOT Hips
{
	OFFSET -14.64140 90.27770 -84.91600
	CHANNELS 6 Xposition Yposition Zposition Zrotation Xrotation Yrotation
	JOINT Spine
	{
		OFFSET 0.00000 13.20850 -1.60436
		CHANNELS 3 Zrotation Xrotation Yrotation
		JOINT Spine1
		{
			OFFSET 0.00000 8.61716 0.00000
			CHANNELS 3 Zrotation Xrotation Yrotation
			JOINT Spine2
			{
				OFFSET 0.00000 8.61717 0.00000
				CHANNELS 3 Zrotation Xrotation Yrotation
				JOINT Spine3
				{
					OFFSET 0.00000 8.61717 0.00000
					CHANNELS 3 Zrotation Xrotation Yrotation
					JOINT Neck
					{
						OFFSET 0.00000 11.07920 1.10792
						CHANNELS 3 Zrotation Xrotation Yrotation
						JOINT Neck1
						{
							OFFSET 0.00000 7.08032 0.00000
							CHANNELS 3 Zrotation Xrotation Yrotation
							JOINT Head
							{
								OFFSET 0.00000 7.08031 0.00000
								CHANNELS 3 Zrotation Xrotation Yrotation
								End site
								{
									OFFSET 0.00000 0.00000 0.00000
								}
							}
						}
					}
					JOINT RightShoulder
					{
						OFFSET -0.01000 7.91373 5.19711
						CHANNELS 3 Zrotation Xrotation Yrotation
						JOINT RightArm
						{
							OFFSET -18.41580 0.00000 0.00000
							CHANNELS 3 Zrotation Xrotation Yrotation
							JOINT RightForeArm
							{
								OFFSET -29.11090 0.00000 0.00000
								CHANNELS 3 Zrotation Xrotation Yrotation
								JOINT RightHand
								{
									OFFSET -24.65040 0.00000 0.00000
									CHANNELS 3 Zrotation Xrotation Yrotation
									JOINT RightHandThumb1
									{
										OFFSET -5.35114 -0.85590 3.97906
										CHANNELS 3 Zrotation Xrotation Yrotation
										JOINT RightHandThumb2
										{
											OFFSET -4.52789 0.00000 0.00000
											CHANNELS 3 Zrotation Xrotation Yrotation
											JOINT RightHandThumb3
											{
												OFFSET -2.46976 0.00000 0.00000
												CHANNELS 3 Zrotation Xrotation Yrotation
												End site
												{
													OFFSET 0.00000 0.00000 0.00000
												}
											}
										}
									}
									JOINT RightHandIndex1
									{
										OFFSET -14.26970 0.00000 2.88139
										CHANNELS 3 Zrotation Xrotation Yrotation
										JOINT RightHandIndex2
										{
											OFFSET -5.48836 0.00000 0.00000
											CHANNELS 3 Zrotation Xrotation Yrotation
											JOINT RightHandIndex3
											{
												OFFSET -3.01859 0.00000 0.00000
												CHANNELS 3 Zrotation Xrotation Yrotation
												End site
												{
													OFFSET 0.00000 0.00000 0.00000
												}
											}
										}
									}
									JOINT RightHandMiddle1
									{
										OFFSET -14.26970 0.00000 -0.09147
										CHANNELS 3 Zrotation Xrotation Yrotation
										JOINT RightHandMiddle2
										{
											OFFSET -6.17441 0.00000 0.00000
											CHANNELS 3 Zrotation Xrotation Yrotation
											JOINT RightHandMiddle3
											{
												OFFSET -3.56743 0.00000 0.00000
												CHANNELS 3 Zrotation Xrotation Yrotation
												End site
												{
													OFFSET 0.00000 0.00000 0.00000
												}
											}
										}
									}
									JOINT RightHandRing1
									{
										OFFSET -12.69180 0.00000 -3.06433
										CHANNELS 3 Zrotation Xrotation Yrotation
										JOINT RightHandRing2
										{
											OFFSET -5.62556 0.00000 0.00000
											CHANNELS 3 Zrotation Xrotation Yrotation
											JOINT RightHandRing3
											{
												OFFSET -3.56744 0.00000 0.00000
												CHANNELS 3 Zrotation Xrotation Yrotation
												End site
												{
													OFFSET 0.00000 0.00000 0.00000
												}
											}
										}
									}
									JOINT RightHandPinky1
									{
										OFFSET -11.11390 0.00000 -6.03719
										CHANNELS 3 Zrotation Xrotation Yrotation
										JOINT RightHandPinky2
										{
											OFFSET -4.52789 0.00000 0.00000
											CHANNELS 3 Zrotation Xrotation Yrotation
											JOINT RightHandPinky3
											{
												OFFSET -2.46976 0.00000 0.00000
												CHANNELS 3 Zrotation Xrotation Yrotation
												End site
												{
													OFFSET 0.00000 0.00000 0.00000
												}
											}
										}
									}
								}
							}
						}
					}
					JOINT LeftShoulder
					{
						OFFSET 0.01000 7.91373 5.19711
						CHANNELS 3 Zrotation Xrotation Yrotation
						JOINT LeftArm
						{
							OFFSET 18.41580 0.00000 0.00000
							CHANNELS 3 Zrotation Xrotation Yrotation
							JOINT LeftForeArm
							{
								OFFSET 29.11090 0.00000 0.00000
								CHANNELS 3 Zrotation Xrotation Yrotation
								JOINT LeftHand
								{
									OFFSET 24.65040 0.00000 0.00000
									CHANNELS 3 Zrotation Xrotation Yrotation
									JOINT LeftHandThumb1
									{
										OFFSET 5.35114 -0.85590 3.97906
										CHANNELS 3 Zrotation Xrotation Yrotation
										JOINT LeftHandThumb2
										{
											OFFSET 4.52789 0.00000 0.00000
											CHANNELS 3 Zrotation Xrotation Yrotation
											JOINT LeftHandThumb3
											{
												OFFSET 2.46977 0.00000 0.00000
												CHANNELS 3 Zrotation Xrotation Yrotation
												End site
												{
													OFFSET 0.00000 0.00000 0.00000
												}
											}
										}
									}
									JOINT LeftHandIndex1
									{
										OFFSET 14.26970 0.00000 2.88139
										CHANNELS 3 Zrotation Xrotation Yrotation
										JOINT LeftHandIndex2
										{
											OFFSET 5.48836 0.00000 0.00000
											CHANNELS 3 Zrotation Xrotation Yrotation
											JOINT LeftHandIndex3
											{
												OFFSET 3.01859 0.00000 0.00000
												CHANNELS 3 Zrotation Xrotation Yrotation
												End site
												{
													OFFSET 0.00000 0.00000 0.00000
												}
											}
										}
									}
									JOINT LeftHandMiddle1
									{
										OFFSET 14.26970 0.00000 -0.09147
										CHANNELS 3 Zrotation Xrotation Yrotation
										JOINT LeftHandMiddle2
										{
											OFFSET 6.17440 0.00000 0.00000
											CHANNELS 3 Zrotation Xrotation Yrotation
											JOINT LeftHandMiddle3
											{
												OFFSET 3.56744 0.00000 0.00000
												CHANNELS 3 Zrotation Xrotation Yrotation
												End site
												{
													OFFSET 0.00000 0.00000 0.00000
												}
											}
										}
									}
									JOINT LeftHandRing1
									{
										OFFSET 12.69180 0.00000 -3.06433
										CHANNELS 3 Zrotation Xrotation Yrotation
										JOINT LeftHandRing2
										{
											OFFSET 5.62556 0.00000 0.00000
											CHANNELS 3 Zrotation Xrotation Yrotation
											JOINT LeftHandRing3
											{
												OFFSET 3.56744 0.00000 0.00000
												CHANNELS 3 Zrotation Xrotation Yrotation
												End site
												{
													OFFSET 0.00000 0.00000 0.00000
												}
											}
										}
									}
									JOINT LeftHandPinky1
									{
										OFFSET 11.11390 0.00000 -6.03719
										CHANNELS 3 Zrotation Xrotation Yrotation
										JOINT LeftHandPinky2
										{
											OFFSET 4.52789 0.00000 0.00000
											CHANNELS 3 Zrotation Xrotation Yrotation
											JOINT LeftHandPinky3
											{
												OFFSET 2.46976 0.00000 0.00000
												CHANNELS 3 Zrotation Xrotation Yrotation
												End site
												{
													OFFSET 0.00000 0.00000 0.00000
												}
											}
										}
									}
								}
							}
						}
					}
					JOINT pCube4
					{
						OFFSET 0.00000 10.91090 1.10792
						CHANNELS 3 Zrotation Xrotation Yrotation
						End site
						{
							OFFSET 0.00000 0.00000 0.00000
						}
					}
				}
			}
		}
	}
	JOINT RightUpLeg
	{
		OFFSET -9.98441 0.00000 0.00000
		CHANNELS 3 Zrotation Xrotation Yrotation
		JOINT RightLeg
		{
			OFFSET 0.00000 -42.11790 0.00000
			CHANNELS 3 Zrotation Xrotation Yrotation
			JOINT RightFoot
			{
				OFFSET 0.00000 -45.00020 -0.00001
				CHANNELS 3 Zrotation Xrotation Yrotation
				JOINT RightForeFoot
				{
					OFFSET 0.00000 -3.74820 0.00000
					CHANNELS 3 Zrotation Xrotation Yrotation
					JOINT RightToeBase
					{
						OFFSET 0.00000 0.06325 14.43120
						CHANNELS 3 Zrotation Xrotation Yrotation
						End site
						{
							OFFSET 0.00000 0.00000 0.00000
						}
					}
				}
			}
		}
	}
	JOINT LeftUpLeg
	{
		OFFSET 9.98441 0.00000 0.00000
		CHANNELS 3 Zrotation Xrotation Yrotation
		JOINT LeftLeg
		{
			OFFSET 0.00000 -42.11800 0.00000
			CHANNELS 3 Zrotation Xrotation Yrotation
			JOINT LeftFoot
			{
				OFFSET 0.00000 -45.00070 0.00000
				CHANNELS 3 Zrotation Xrotation Yrotation
				JOINT LeftForeFoot
				{
					OFFSET 0.00000 -3.74824 0.00000
					CHANNELS 3 Zrotation Xrotation Yrotation
					JOINT LeftToeBase
					{
						OFFSET 0.00000 0.06325 14.43110
						CHANNELS 3 Zrotation Xrotation Yrotation
						End site
						{
							OFFSET 0.00000 0.00000 0.00000
						}
					}
				}
			}
		}
	}
}
MOTION
Frames: 4
Frame Time: 0.050000
-0.02384251461701875 0.0008427163237020494 0.004789586507307563 -0.033419081688338174 0.02544878828126994 -0.012130683292352864 3.52301081321264 4.5453331066845015 -1.816297834786488 -0.7600917913067482 3.481287317494193 0.3736311811623555 -0.6898356257944187 -1.1804026998427344 -0.4263993785658553 -0.41473816746994097 -0.43557069631581624 -0.49497560786788564 -0.38549903257408824 12.58472508710537 -1.0498384844780018 0.29091037234333794 -0.3569458885605295 -2.520612067387772 0.7329031999181258 -16.502421417062536 -0.23364808648519042 -9.146363296257052 3.307318465618508 -16.772286370690416 73.06332867134738 -6.612661688574692 1.714876919286396 1.3183063653191749 0.5571963713837763 67.09801959294407 16.1827199941159 -0.4006954225661644 -1.9840671171701085 4.549833701716537 -0.14587734143961406 -1.613372121415791 0.004889883426752405 0.0421725146314198 -56.19619319964409 -0.0037532882862144927 -0.016324530559916988 -56.23099317574793 -38.777259914146434 0.030696926982702374 -0.005071184084199006 -0.04674660485428955 -0.015897658696875594 -0.029234490969750927 0.005255569291550743 -0.03528785569771816 -0.028845693286910886 -36.69128437525311 0.01465994058061996 0.04641318485818441 -0.015496975825178342 -0.03664681655066057 -0.01513816719946399 -0.022754359802092623 0.0025412151999078462 0.007288261557530307 -19.741160872957543 0.032395117577764115 0.025997930613683846 0.005694080247020007 0.04807815398411439 0.04619171798566869 0.0424018500456799 -0.038208662612346816 -0.029964454750387375 24.00859199732246 0.03285758635672336 -0.013307302508884962 28.90225277181119 -0.033341545923197505 0.011239490254412373 28.833185610235233 0.0027455218390722565 0.008196711810705809 11.510545927319598 2.7340533863547085 14.713466760475109 -62.853426038250625 2.091070298690078 -23.43166617914685 -13.000699462113607 -4.338491253086228 -85.4957040482135 -12.186833939748329 -3.149386519599961 -0.9467018337960933 -0.45931812751335543 0.05973020429503678 -8.120152216674665 -0.017938858692842535 0.042460735097930316 44.58429005838932 -0.04742376001145349 0.0028714950740692806 44.55874114512054 12.456557320292665 0.0006635969764884983 0.005051292251973056 0.023283082580106723 -0.04569331588071178 0.034158312662887616 -0.023387229414552967 -0.024539312241095342 0.021946054836473487 11.056530172165969 0.00566070508617124 -0.011041791006039742 0.03638803993021391 -0.015477497543337439 -0.028336745053292933 0.002516696749208828 -0.02647064471405987 0.0016504938336666282 4.766014766447776 0.04253411767143725 -0.0024196457342682168 0.030247914277696426 -0.024771028567178888 0.013837987635694405 0.045059079160802866 0.004837394756481428 -0.041059142794274944 -5.623170918142196 -0.03336758070666279 -0.026166593667124274 -6.676298096826705 0.04254633946874665 0.003106797745086769 -6.745907969775374 -0.013287510920982725 0.0033918085557143444 -0.02210783541106595 0.01877018452834351 -0.04448568807677723 8.067645240034294 3.452744823710452 -19.171350926526056 0.007653519670643229 10.418205983255895 0.0596212537408799 -5.629816110451638 -15.69479163502097 3.199638334325251 -0.039781813160047745 0.028515839744084257 0.0474489822159946 -0.013417879302106464 4.729266394431205 -0.0009681805593545137 12.454832827330735 -8.237647234934247 6.883544359468851 0.020832356924787396 46.335669008466745 0.02242555474153106 -4.351419723392886 -14.706549161361114 -3.8436914759991714 0.029062049963182065 0.035053418560635964 0.007356141901335191 0.014129429712684018 -10.767234454092216 -0.0333114328754383 
-0.03260623315169705 0.030748437906964472 0.03198205982051482 -0.008468974976108665 -0.007315926148867086 0.022926401187131948 3.4802222516232955 4.494192138242064 -1.7964790755896993 -0.8332733057766645 3.526502914456608 0.38797919389842156 -0.6314434871760977 -1.1823228773714818 -0.5397142682959298 -0.4034179222311858 -0.44715645512790014 -0.5664570753117354 -0.4689580595980126 12.608043246219198 -1.0013233946520355 0.3044194492424911 -0.42218601061308336 -2.072399392102558 0.6793755197805 -16.650026665619244 -0.17934226398642614 -9.409325303843525 3.4128650084842707 -16.953731466578358 73.29357484263508 -6.629321689450009 1.0979694094441463 1.31085858469265 -0.27537109045389113 67.65244249818107 16.057482519768104 -0.3592708815175335 -1.9548742754179442 4.497248514088747 -0.07760238536564962 -1.6176909847505945 -0.04954001933901598 -0.036817064505164775 -56.28058436430731 -0.024810500184239484 0.0190688672874666 -56.20262637859309 -38.72546767727367 0.020703576155594625 0.02014289484142014 -0.035377027785316914 0.04796778622591879 -0.035968040658422254 0.016397895210418234 -0.0012297642405734832 -0.011819606385929498 -36.69963814356521 0.012822618222141298 0.04297447527398583 -0.012251921757595239 -0.04247538538029126 -0.01848539981070422 -0.03234460180529933 0.009606569358864423 0.0033492358329139625 -19.74676005765239 -0.01790342583560853 -0.021917902523906314 -0.017484992493067522 0.014104355198390968 0.004305774027833614 -0.044311074380921266 0.040278052217728094 0.04698129966671733 24.021397065544093 0.03793192963158564 -0.016428096508725395 28.888639419975558 -0.006719051861389791 0.04489443629779102 28.85341436573552 -0.031907945144633444 -0.04476506849751629 11.989829827178347 2.846031729435918 14.737042705898928 -62.442506339717944 1.6541383355017039 -24.18587464842507 -12.657484315977207 -5.1092101575862525 -86.34666075166886 -11.97222442136985 -3.3631993643226683 -0.9557987004967484 -0.45688135705260435 0.10681232545638357 -8.134245032814427 0.04227438744307713 -0.038325218951513876 44.57522679518943 0.011916351195611904 -0.007445398059073738 44.59730262163928 12.434926051285865 0.016736919890266305 0.01964628697757031 -0.04720052619932456 0.02024343593718174 -0.01636799044006971 0.035454306358085295 -0.03945985669202269 -0.004713086274953055 11.151518952505551 -0.04814439113618028 0.03472212149844299 0.02920060192771798 0.017962960066944457 0.03638671294314153 -0.018379441907969994 -0.038949054003189945 0.017633060403719335 4.723678767804786 -0.04838622350214369 -0.03996743351891593 -0.017084144724998487 0.03685599631374545 -0.03169855945641914 -0.03900682811708354 0.01580441558833201 0.022129029527105683 -5.57486716744434 -0.007861304430176519 -0.038684698378427945 -6.769958079982314 0.0003830954358701789 0.033736460681762385 -6.700597861767285 0.044823545493678514 0.006693719172438419 0.03510653325731027 0.02654002543050117 0.027637372195943307 8.082007264059419 3.5242916724123092 -19.213154673594193 -0.020177115207709276 10.42139971608825 -0.0008779237355914932 -5.611504549424937 -15.689916879590353 3.1795020571047115 0.0002589358337637839 0.022769532434276308 0.013749963656221534 0.007512634329944711 4.720285642503725 -0.010708670855204652 12.492505392952927 -8.286860825462409 6.900832883036264 0.04563643601540536 46.373141419552304 -0.0033334420122452264 -4.3144218902311495 -14.760591034485753 -3.8650419507794185 0.030912842530181565 -0.012973314972232012 -0.016162773044651645 -0.023397406259162014 -10.722265567824703 -0.013418692336954316 
-0.0006026935115962599 0.00956391570100748 -0.04378224823228383 -0.043015839221510005 0.026852497488959154 -0.044531785471940394 3.5578664873367187 4.421217180930726 -1.8995474626303146 -0.7677840477369022 3.5297893003472804 0.3713655065984462 -0.6268568556858233 -1.2031377453521583 -0.671468539420346 -0.4100423651671401 -0.39662343389330745 -0.5490122886720162 -0.4912750676770133 12.58958546963063 -0.9087333952260777 0.3498976613257555 -0.4152110818118318 -1.8139562290485967 0.5984326785420802 -16.705120995484922 -0.21185100430649856 -9.455124444625113 3.3847075411472582 -17.048615368888722 73.61854898695677 -6.529363397402821 0.0833913901936451 1.0541321206474763 -0.9583917474503835 67.98931362214559 16.453091661261244 -0.354550452372894 -2.0166891945183827 4.535616593617886 -0.1532186862480875 -1.6151164359366714 -0.009517281819916205 -0.0010770787889508118 -56.22265405648201 0.020409922502816372 -0.027735541374555236 -56.2439169268974 -38.76749929290809 -0.011088297933937149 -0.0353952987608176 0.04479278236413921 -0.0333993132849644 -0.009801158234830304 0.0016439412203632358 -0.02494844804505627 0.012818815839340181 -36.70048295779517 -0.033657792138419636 0.03112146653531014 0.03995024862371814 -0.007014518307791301 0.02055140141223468 -0.014072171269381274 0.01980172375613126 0.0021636260571213134 -19.76841949800147 -0.04775808671086013 0.012000016995483068 -0.003907533255985477 -0.04463847450935655 -0.0358294989021304 -0.02911477943123706 0.003358475308560837 0.02800033159236705 24.07494426162908 0.03691604466659151 0.04272249728404199 28.827102933709003 -0.036562086080289144 -0.028569900472171107 28.91091010665525 0.023271236165114142 -0.038075945179301324 12.169716579006488 2.9002293023750934 14.863424223347263 -62.02982343791587 1.2349143278777084 -24.745084106106574 -12.836005793721327 -5.72464435384419 -87.3217318024435 -12.071778731369326 -3.561284535804002 -0.924578940094557 -0.43428274647811815 0.04177224034864824 -8.114483662442678 -0.0348970722811819 0.012777008935151676 44.556276279967676 -0.021780306382170808 0.04467403000770359 44.53149512368221 12.505434370228594 -0.026637665568795914 0.009551089086352075 0.025829575917562058 -0.02845226710239488 -0.04859362373931601 -0.04094930768837234 0.017268261136926078 0.03598431514606609 11.114054640072863 0.0037252044770328947 -0.0347208004604228 0.027246097065884285 0.03753898268913432 0.01638010158287762 -0.032052451638862556 0.03966658474794486 0.004237319847265085 4.780622197530574 0.024447970868466062 0.028788301237410774 -0.03315614228828541 -0.02274035977946344 -0.025530599069169074 -0.043130841078142954 0.04621420132251591 0.018971020286834058 -5.630385950856333 -0.042069753496564485 0.027945181754391285 -6.73434929807607 0.018066210680550695 -0.01787022680570106 -6.691608695076249 0.019104724379094152 0.0048151323598901955 -0.04923762675142706 0.02558935057419236 0.04785805751237401 8.065034261774395 3.4864376649081503 -19.23269730019674 0.019285705111969927 10.413344673047 -0.030244493540925798 -5.586139380485932 -15.69556750890377 3.2166406704275254 0.040152911329179336 0.04392532058794312 -0.044463127277681744 0.004138782435537188 4.6601114146650575 -0.02301466782728816 12.426000897916795 -8.271848668369042 6.880282671540916 0.017321865138848817 46.424999721030304 0.027987847221244255 -4.359033196781889 -14.779814268317889 -3.849225324011794 0.029843886626057484 -0.02514383715821664 0.01390891562166707 0.04147084311189697 -10.762998676258404 0.018603843936195033 
-0.03624262807211145 0.04447987193997158 -0.029824178549595494 -0.025326630283452046 -0.0213723173482272 -0.017587834996894394 3.35107746386951 4.597474310070289 -1.794544448161843 -0.7562023875128167 3.506363555115489 0.3694280943777997 -0.6817321189165608 -1.187860420796075 -0.8378600949441263 -0.43227540561814365 -0.46374166051347787 -0.5304308467989953 -0.4951149007232191 12.415328965884248 -0.8927381677335228 0.3731036237899743 -0.47573981623919254 -1.850180544961601 0.6613915996291214 -16.771877949817018 -0.20394367365754365 -9.065687713536432 3.3074396432213353 -16.927514090582854 73.61717756407683 -6.807796369107752 -0.8937928104313901 0.4068633471892627 -1.3249534848432092 68.19909498935476 17.383884250054113 -0.3700012921267157 -2.1833484380359764 4.512073329723515 -0.1297815181718604 -1.5751286689282948 0.015407012862872379 0.04268799669813401 -56.25140913467485 0.00814136065049861 -0.020728041834416244 -56.19128183957685 -38.73749373677261 -0.029988936590338963 -0.029180666601807174 -0.031743665133874104 0.0005093290803665288 -0.015423707694454142 0.04136870791346164 0.01881926849390627 0.0041904316303471535 -36.66094634979273 -0.013068577497400256 0.01425534710352626 0.005409588646568856 0.003772581069563857 -0.01529696808709879 -0.022509633249835043 -0.01870614083539674 -0.048893490669812086 -19.79773327864076 -0.0450657261572964 -0.029221179990139286 0.04536005339471587 0.019209972054400615 -0.036111193940481554 -0.04140612566686066 0.00920029749446854 -0.035297726436285766 24.0706331352312 0.028394653463146815 -0.045956597777786705 28.856809984514896 0.04922085047121023 0.041336024806699234 28.878609179168958 -0.015479109673194755 0.021963173659522287 11.947614374884193 2.856144214082293 14.704297653920355 -61.26966587497802 1.0047654422244137 -24.95618134899708 -13.3431395421096 -6.155680889454619 -88.7122945232193 -12.431058537542118 -3.7012778195182947 -1.0768349030058 -0.520210528820415 0.0749682845008176 -8.115982558717405 -0.04821089801913152 -0.014232655341378261 44.59820142802505 -0.03888744916059008 -0.025106198628120482 44.57951432271187 12.432000871526455 -0.02444798862208772 0.018901747250452777 -0.025467458305039846 -0.031249497608742297 -0.0018686001754902274 -0.0082804368123346 -0.0064586205273746864 0.015661867201320595 11.123279128689662 0.00935368794151001 0.04063598969048577 0.024557916594981077 -0.02887387729378305 0.049654393498880546 -0.008903254129802354 0.02646896170745678 -0.02408698130201594 4.7952343061329 0.0452981100319973 0.019016868419563487 0.04540453001659704 -0.0007178344438965633 0.04788502404465691 0.035208522327617085 0.005851785878580104 -0.0045294688414533515 -5.5691638467818665 -0.008319509942919457 0.0013453482262632962 -6.750436712379242 0.025097488527692353 -0.024367826722188176 -6.762940523571953 -0.025913457712126487 0.016613791300334114 -0.030231150487353628 -0.007963416513848149 0.006412413713744545 8.017514847500646 3.452214030958238 -19.250533574348708 -0.01134439041601258 10.37715816859264 -0.03220891544275199 -5.611568275171295 -15.648363129254538 3.174766319962741 0.029279777361713284 -0.02086254324032971 0.013384660217147102 0.007672393727156896 4.709109749601245 -0.019342548076279678 12.479842214176141 -8.253046202722665 6.911433746348691 0.008711885307944875 46.341050783481975 0.03102620349611756 -4.325042658731174 -14.710868028716666 -3.8267235903306585 -0.013476539288178609 0.04913336341940614 0.015206242877174196 -0.024278958424773307 -10.70106659399879 -0.024276936490098475 
